<svg xmlns="http://www.w3.org/2000/svg" xmlns:xlink="http://www.w3.org/1999/xlink" contentStyleType="text/css" height="477px" preserveAspectRatio="none" style="width:1183px;height:477px;background:#FFFFFF;" version="1.1" viewBox="0 0 1183 477" width="1183px" zoomAndPan="magnify"><defs/><g><text fill="#000000" font-family="sans-serif" font-size="14" font-weight="bold" lengthAdjust="spacing" textLength="230.583" x="469.2085" y="22.9951">Hall Change Request Process</text><ellipse cx="88.5" cy="53.2969" fill="#222222" rx="10" ry="10" style="stroke:#222222;stroke-width:1.0;"/><g id="Dashboard"><rect fill="#F1F1F1" height="50.2656" rx="12.5" ry="12.5" style="stroke:#181818;stroke-width:0.5;" width="129.125" x="24" y="115.2969"/><line style="stroke:#181818;stroke-width:0.5;" x1="24" x2="153.125" y1="141.5938" y2="141.5938"/><text fill="#000000" font-family="sans-serif" font-size="14" lengthAdjust="spacing" textLength="76.2002" x="50.4624" y="133.292">Dashboard</text><text fill="#000000" font-family="sans-serif" font-size="12" lengthAdjust="spacing" textLength="109.125" x="29" y="157.7324">do / Show Options</text></g><g id="StartRequest"><rect fill="#F1F1F1" height="50.2656" rx="12.5" ry="12.5" style="stroke:#181818;stroke-width:0.5;" width="163.4492" x="7" y="217.2969"/><line style="stroke:#181818;stroke-width:0.5;" x1="7" x2="170.4492" y1="243.5938" y2="243.5938"/><text fill="#000000" font-family="sans-serif" font-size="14" lengthAdjust="spacing" textLength="91.6973" x="42.876" y="235.292">StartRequest</text><text fill="#000000" font-family="sans-serif" font-size="12" lengthAdjust="spacing" textLength="143.4492" x="12" y="259.7324">do / Show Change Form</text></g><g id="ProvideInfo"><rect fill="#F1F1F1" height="50.2656" rx="12.5" ry="12.5" style="stroke:#181818;stroke-width:0.5;" width="157.0332" x="309" y="217.2969"/><line style="stroke:#181818;stroke-width:0.5;" x1="309" x2="466.0332" y1="243.5938" y2="243.5938"/><text fill="#000000" font-family="sans-serif" font-size="14" lengthAdjust="spacing" textLength="78.9346" x="348.0493" y="235.292">ProvideInfo</text><text fill="#000000" font-family="sans-serif" font-size="12" lengthAdjust="spacing" textLength="137.0332" x="314" y="259.7324">do / Check Information</text></g><g id="Submit"><rect fill="#F1F1F1" height="50.2656" rx="12.5" ry="12.5" style="stroke:#181818;stroke-width:0.5;" width="154.4902" x="560" y="217.2969"/><line style="stroke:#181818;stroke-width:0.5;" x1="560" x2="714.4902" y1="243.5938" y2="243.5938"/><text fill="#000000" font-family="sans-serif" font-size="14" lengthAdjust="spacing" textLength="49.6631" x="612.4136" y="235.292">Submit</text><text fill="#000000" font-family="sans-serif" font-size="12" lengthAdjust="spacing" textLength="134.4902" x="565" y="259.7324">do / Send for Approval</text></g><g id="Denied"><rect fill="#F1F1F1" height="50.2656" rx="12.5" ry="12.5" style="stroke:#181818;stroke-width:0.5;" width="124.3789" x="898" y="336.2969"/><line style="stroke:#181818;stroke-width:0.5;" x1="898" x2="1022.3789" y1="362.5938" y2="362.5938"/><text fill="#000000" font-family="sans-serif" font-size="14" lengthAdjust="spacing" textLength="49.6563" x="935.3613" y="354.292">Denied</text><text fill="#000000" font-family="sans-serif" font-size="12" lengthAdjust="spacing" textLength="104.3789" x="903" y="378.7324">do / Notify Denial</text></g><g id="Approved"><rect fill="#F1F1F1" height="50.2656" rx="12.5" ry="12.5" style="stroke:#181818;stroke-width:0.5;" width="139.6367" x="567" y="319.2969"/><line style="stroke:#181818;stroke-width:0.5;" x1="567" x2="706.6367" y1="345.5938" y2="345.5938"/><text fill="#000000" font-family="sans-serif" font-size="14" lengthAdjust="spacing" textLength="67.457" x="603.0898" y="337.292">Approved</text><text fill="#000000" font-family="sans-serif" font-size="12" lengthAdjust="spacing" textLength="119.6367" x="572" y="361.7324">do / Notify Approval</text></g><g id="CancelOption"><rect fill="#F1F1F1" height="50.2656" rx="12.5" ry="12.5" style="stroke:#181818;stroke-width:0.5;" width="136.5664" x="568.5" y="421.2969"/><line style="stroke:#181818;stroke-width:0.5;" x1="568.5" x2="705.0664" y1="447.5938" y2="447.5938"/><text fill="#000000" font-family="sans-serif" font-size="14" lengthAdjust="spacing" textLength="94.1514" x="589.7075" y="439.292">CancelOption</text><text fill="#000000" font-family="sans-serif" font-size="12" lengthAdjust="spacing" textLength="116.5664" x="573.5" y="463.7324">do/ Cancel Request</text></g><g id="Complete"><rect fill="#F1F1F1" height="50.2656" rx="12.5" ry="12.5" style="stroke:#181818;stroke-width:0.5;" width="142.3848" x="889" y="421.2969"/><line style="stroke:#181818;stroke-width:0.5;" x1="889" x2="1031.3848" y1="447.5938" y2="447.5938"/><text fill="#000000" font-family="sans-serif" font-size="14" lengthAdjust="spacing" textLength="67.4707" x="926.457" y="439.292">Complete</text><text fill="#000000" font-family="sans-serif" font-size="12" lengthAdjust="spacing" textLength="122.3848" x="894" y="463.7324">do / Process Change</text></g><ellipse cx="1166" cy="404.2969" fill="none" rx="11" ry="11" style="stroke:#222222;stroke-width:1.0;"/><ellipse cx="1166" cy="404.2969" fill="#222222" rx="6" ry="6" style="stroke:#222222;stroke-width:1.0;"/><!--link *start* to Dashboard--><g id="link_*start*_Dashboard"><path d="M88.5,63.3269 C88.5,75.8869 88.5,91.8669 88.5,109.1369 " fill="none" id="*start*-to-Dashboard" style="stroke:#181818;stroke-width:1.0;"/><polygon fill="#181818" points="88.5,115.1369,92.5,106.1369,88.5,110.1369,84.5,106.1369,88.5,115.1369" style="stroke:#181818;stroke-width:1.0;"/><text fill="#000000" font-family="sans-serif" font-size="13" lengthAdjust="spacing" textLength="78.8696" x="38" y="93.8638">Hall Change</text></g><!--link Dashboard to StartRequest--><g id="link_Dashboard_StartRequest"><path d="M88.5,165.5769 C88.5,181.2769 88.5,195.3869 88.5,211.0869 " fill="none" id="Dashboard-to-StartRequest" style="stroke:#181818;stroke-width:1.0;"/><polygon fill="#181818" points="88.5,217.0869,92.5,208.0869,88.5,212.0869,84.5,208.0869,88.5,217.0869" style="stroke:#181818;stroke-width:1.0;"/><text fill="#000000" font-family="sans-serif" font-size="13" lengthAdjust="spacing" textLength="120.0215" x="17" y="195.8638">Begin Hall Change</text></g><!--link StartRequest to ProvideInfo--><g id="link_StartRequest_ProvideInfo"><path d="M170.26,242.2969 C213.38,242.2969 260.19,242.2969 302.83,242.2969 " fill="none" id="StartRequest-to-ProvideInfo" style="stroke:#181818;stroke-width:1.0;"/><polygon fill="#181818" points="308.83,242.2969,299.83,238.2969,303.83,242.2969,299.83,246.2969,308.83,242.2969" style="stroke:#181818;stroke-width:1.0;"/><text fill="#000000" font-family="sans-serif" font-size="13" lengthAdjust="spacing" textLength="77.2065" x="201" y="238.3638">Provide info</text></g><!--link ProvideInfo to ProvideInfo--><g id="link_ProvideInfo_ProvideInfo"><path d="M366.52,217.0169 C360.16,199.5269 367.16,182.2969 387.5,182.2969 C407.84,182.2969 416.8905,193.8881 410.5305,211.3781 " fill="none" id="ProvideInfo-to-ProvideInfo" style="stroke:#181818;stroke-width:1.0;"/><polygon fill="#181818" points="408.48,217.0169,415.3149,209.9257,410.1887,212.3179,407.7965,207.1918,408.48,217.0169" style="stroke:#181818;stroke-width:1.0;"/><text fill="#000000" font-family="sans-serif" font-size="13" lengthAdjust="spacing" textLength="122.3955" x="326.5" y="173.3638">[Invalid] : Re-enter</text></g><!--link ProvideInfo to Submit--><g id="link_ProvideInfo_Submit"><path d="M466.13,242.2969 C496.04,242.2969 524.15,242.2969 553.92,242.2969 " fill="none" id="ProvideInfo-to-Submit" style="stroke:#181818;stroke-width:1.0;"/><polygon fill="#181818" points="559.92,242.2969,550.92,238.2969,554.92,242.2969,550.92,246.2969,559.92,242.2969" style="stroke:#181818;stroke-width:1.0;"/><text fill="#000000" font-family="sans-serif" font-size="13" lengthAdjust="spacing" textLength="32.335" x="497" y="238.3638">Valid</text></g><!--link Submit to Denied--><g id="link_Submit_Denied"><path d="M705.68,267.3869 C762.52,288.4569 837.3944,316.2106 892.2944,336.5706 " fill="none" id="Submit-to-Denied" style="stroke:#181818;stroke-width:1.0;"/><polygon fill="#181818" points="897.92,338.6569,890.8725,331.777,893.232,336.9183,888.0907,339.2778,897.92,338.6569" style="stroke:#181818;stroke-width:1.0;"/><text fill="#000000" font-family="sans-serif" font-size="13" lengthAdjust="spacing" textLength="113.7754" x="745" y="280.3638">[Request Denied]</text></g><!--link Submit to Approved--><g id="link_Submit_Approved"><path d="M637,267.5769 C637,283.2769 637,297.3869 637,313.0869 " fill="none" id="Submit-to-Approved" style="stroke:#181818;stroke-width:1.0;"/><polygon fill="#181818" points="637,319.0869,641,310.0869,637,314.0869,633,310.0869,637,319.0869" style="stroke:#181818;stroke-width:1.0;"/><text fill="#000000" font-family="sans-serif" font-size="13" lengthAdjust="spacing" textLength="130.3047" x="560.5" y="297.8638">[Request Approved]</text></g><!--link Approved to CancelOption--><g id="link_Approved_CancelOption"><path d="M637,369.5769 C637,385.2769 637,399.3869 637,415.0869 " fill="none" id="Approved-to-CancelOption" style="stroke:#181818;stroke-width:1.0;"/><polygon fill="#181818" points="637,421.0869,641,412.0869,637,416.0869,633,412.0869,637,421.0869" style="stroke:#181818;stroke-width:1.0;"/><text fill="#000000" font-family="sans-serif" font-size="13" lengthAdjust="spacing" textLength="118.8853" x="566.5" y="399.8638">[Option to Cancel]</text></g><!--link CancelOption to Denied--><g id="link_CancelOption_Denied"><path d="M705.68,428.3769 C762.52,413.3269 837.22,393.543 892.12,379.003 " fill="none" id="CancelOption-to-Denied" style="stroke:#181818;stroke-width:1.0;"/><polygon fill="#181818" points="897.92,377.4669,888.1959,375.9044,893.0866,378.747,890.244,383.6377,897.92,377.4669" style="stroke:#181818;stroke-width:1.0;"/><text fill="#000000" font-family="sans-serif" font-size="13" lengthAdjust="spacing" textLength="54.1836" x="774.5" y="385.3638">[Cancel]</text></g><!--link CancelOption to Complete--><g id="link_CancelOption_Complete"><path d="M705.68,446.2969 C759.49,446.2969 828.49,446.2969 882.91,446.2969 " fill="none" id="CancelOption-to-Complete" style="stroke:#181818;stroke-width:1.0;"/><polygon fill="#181818" points="888.91,446.2969,879.91,442.2969,883.91,446.2969,879.91,450.2969,888.91,446.2969" style="stroke:#181818;stroke-width:1.0;"/><text fill="#000000" font-family="sans-serif" font-size="13" lengthAdjust="spacing" textLength="52.9458" x="775.5" y="442.3638">proceed</text></g><!--link Denied to *end*--><g id="link_Denied_*end*"><path d="M1022.21,374.1969 C1069.62,384.1969 1125.2489,395.9201 1149.0789,400.9401 " fill="none" id="Denied-to-*end*" style="stroke:#181818;stroke-width:1.0;"/><polygon fill="#181818" points="1154.95,402.1769,1146.9678,396.4076,1150.0574,401.1462,1145.3187,404.2358,1154.95,402.1769" style="stroke:#181818;stroke-width:1.0;"/><text fill="#000000" font-family="sans-serif" font-size="13" lengthAdjust="spacing" textLength="62.6514" x="1062" y="379.3638">Complete</text></g><!--link Complete to *end*--><g id="link_Complete_*end*"><path d="M1031.05,445.2269 C1060.66,443.0869 1095.14,438.3569 1125,428.2969 C1136.97,424.2669 1144.369,419.7815 1152.099,414.1215 " fill="none" id="Complete-to-*end*" style="stroke:#181818;stroke-width:1.0;"/><polygon fill="#181818" points="1156.94,410.5769,1147.3154,412.6665,1152.9058,413.5308,1152.0416,419.1212,1156.94,410.5769" style="stroke:#181818;stroke-width:1.0;"/><text fill="#000000" font-family="sans-serif" font-size="13" lengthAdjust="spacing" textLength="62.6514" x="1062" y="424.3638">Complete</text></g><!--SRC=[TL9DJuGm4BttLypPXEoTWubYZ7jHioHU28Sk7PR6qcBfhl7VEuKMYiHRE-zZthJZf5C8BrmfA3gkBmWd_BhYwE3TcWR7aJ65hGDdmCfBvq18YusJHZDMtTMGtSCJ7xkpuLP0dXgnjKwaqd7hedKEZtYH-Xzs3iB00ShEVCFRu5jHY3_wbH5IFnlRRqaPTQKPRbBWKRU6HE46agvi2qr-HOVD9_YAxVaqOahQ-rL7VUDAYfhE9ynGExGxINazzv8YVtWcYxSm06e1r0qUXe5aN4NSlofgYVungZZGNAaJpYpRicAjPYo1ftQlnidsPsssu6HLSDsWcf_RsuKJVVkCaDs6acqYHavAyKqFGHsNQkzHc7vGw91S1hzmA1XRVDFKlaYP0-QbVltonO3ohLQJC2nmNB05tcj_0G00]--></g></svg>