<svg xmlns="http://www.w3.org/2000/svg" xmlns:v="https://svgstorm.com"
viewBox = "0 0 284 177"
width="284"
height="177">
<g fill="None" fill-opacity="0.0" stroke="#111896" stroke-opacity="1.00" stroke-width="0.3"><path d="
M 0.00 32.00 
C 8.30 35.62 13.76 45.34 21.25 50.75 C 28.75 56.15 36.96 63.72 40.00 72.00
C 48.82 71.96 44.82 85.19 53.25 87.75 C 61.68 90.30 58.15 102.82 64.00 106.00
C 42.28 107.05 19.51 105.81 0.00 98.00
L 0.00 101.00
C 11.16 111.09 24.11 118.03 41.00 116.00 C 57.89 113.97 76.25 115.56 91.67 110.67 C 107.09 105.78 119.31 101.90 134.00 96.00
C 142.10 91.58 153.43 89.26 163.00 87.00
C 172.36 83.80 183.13 79.01 192.00 75.00
C 193.46 74.34 195.87 73.33 197.00 72.00
C 187.49 74.23 177.96 71.01 168.00 72.00
C 169.59 63.21 158.00 65.24 152.00 64.00
C 149.52 57.43 143.66 51.97 137.90 48.10 C 132.14 44.23 120.61 41.70 123.00 32.00
C 116.46 30.62 111.81 26.34 105.00 26.00
C 104.70 21.12 100.78 19.39 96.00 20.00
C 91.73 13.19 85.55 7.50 80.00 0.00
L 0.00 0.00
L 0.00 32.00 Z"/>
</g>
<g fill="None" fill-opacity="0.0" stroke="#112AA8" stroke-opacity="1.00" stroke-width="0.3"><path d="
M 192.00 75.00 
C 201.43 72.77 209.25 70.67 218.00 67.00
C 214.33 56.70 196.30 61.41 192.00 53.00
C 186.41 53.34 181.24 52.12 176.00 51.00
C 173.98 43.69 157.60 45.08 160.00 34.00
C 157.33 33.33 155.23 31.06 152.00 32.00
C 151.21 25.92 142.03 23.85 136.00 24.00
C 137.63 18.50 131.25 20.22 128.00 20.00
C 128.99 15.23 122.70 17.55 120.00 17.00
C 122.13 9.74 111.01 10.43 112.00 4.00
C 109.46 2.74 104.32 3.74 104.00 0.00
L 80.00 0.00
C 85.55 7.50 91.73 13.19 96.00 20.00
C 100.78 19.39 104.70 21.12 105.00 26.00
C 111.81 26.34 116.46 30.62 123.00 32.00
C 120.61 41.70 132.14 44.23 137.90 48.10 C 143.66 51.97 149.52 57.43 152.00 64.00
C 158.00 65.24 169.59 63.21 168.00 72.00
C 177.96 71.01 187.49 74.23 197.00 72.00
C 195.87 73.33 193.46 74.34 192.00 75.00 Z"/>
</g>
<g fill="None" fill-opacity="0.0" stroke="#1436BF" stroke-opacity="1.00" stroke-width="0.3"><path d="
M 192.00 75.00 
C 183.13 79.01 172.36 83.80 163.00 87.00
C 180.15 82.95 195.43 76.56 212.00 72.00
C 219.07 70.06 225.88 66.90 233.00 65.00
C 235.37 63.49 237.73 60.59 240.00 59.00
C 237.48 57.86 234.92 56.76 232.00 57.00
C 228.85 46.40 212.44 44.24 211.00 32.00
C 203.40 28.54 193.45 27.32 184.33 26.67 C 175.21 26.02 168.79 20.05 160.00 19.00
C 159.14 11.68 147.18 13.83 146.00 6.00
C 141.88 6.72 137.10 3.69 136.00 0.00
L 104.00 0.00
C 104.32 3.74 109.46 2.74 112.00 4.00
C 111.01 10.43 122.13 9.74 120.00 17.00
C 122.70 17.55 128.99 15.23 128.00 20.00
C 131.25 20.22 137.63 18.50 136.00 24.00
C 142.03 23.85 151.21 25.92 152.00 32.00
C 155.23 31.06 157.33 33.33 160.00 34.00
C 157.60 45.08 173.98 43.69 176.00 51.00
C 181.24 52.12 186.41 53.34 192.00 53.00
C 196.30 61.41 214.33 56.70 218.00 67.00
C 209.25 70.67 201.43 72.77 192.00 75.00 Z"/>
</g>
<g fill="None" fill-opacity="0.0" stroke="#1741E0" stroke-opacity="1.00" stroke-width="0.3"><path d="
M 233.00 65.00 
C 236.55 64.05 240.25 63.29 244.00 63.00
C 252.05 60.03 263.08 56.35 272.00 59.00
C 247.82 64.59 223.05 74.51 198.00 83.00
C 180.23 88.39 163.65 99.48 147.00 108.00
C 146.28 108.37 145.74 108.69 145.00 109.00
C 141.37 112.25 136.89 114.85 132.00 116.00
C 131.53 116.11 131.00 116.00 131.00 116.00
C 129.34 118.75 144.60 116.65 144.00 111.00
C 166.85 107.14 186.75 95.69 210.02 89.02 C 233.30 82.36 258.81 73.23 284.00 72.00
L 284.00 40.00
C 260.20 34.98 231.83 31.31 208.00 28.00 C 184.17 24.69 166.03 13.23 148.00 0.00
L 136.00 0.00
C 137.10 3.69 141.88 6.72 146.00 6.00
C 147.18 13.83 159.14 11.68 160.00 19.00
C 168.79 20.05 175.21 26.02 184.33 26.67 C 193.45 27.32 203.40 28.54 211.00 32.00
C 212.44 44.24 228.85 46.40 232.00 57.00
C 234.92 56.76 237.48 57.86 240.00 59.00
C 237.73 60.59 235.37 63.49 233.00 65.00 Z"/>
</g>
<g fill="None" fill-opacity="0.0" stroke="#1C5FE8" stroke-opacity="1.00" stroke-width="0.3"><path d="
M 284.00 40.00 
L 284.00 36.00
C 273.22 35.27 261.78 33.57 251.93 30.07 C 242.07 26.57 228.25 30.74 224.00 21.00
C 214.66 20.98 208.18 14.32 200.92 11.08 C 193.67 7.83 185.19 6.26 179.00 0.00
L 148.00 0.00
C 166.03 13.23 184.17 24.69 208.00 28.00 C 231.83 31.31 260.20 34.98 284.00 40.00 Z"/>
</g>
<g fill="None" fill-opacity="0.0" stroke="#1F7CF7" stroke-opacity="1.00" stroke-width="0.3"><path d="
M 284.00 36.00 
L 284.00 31.00
C 266.39 23.79 252.16 10.63 232.00 8.00
C 233.08 2.50 222.43 6.47 224.00 0.00
L 179.00 0.00
C 185.19 6.26 193.67 7.83 200.92 11.08 C 208.18 14.32 214.66 20.98 224.00 21.00
C 228.25 30.74 242.07 26.57 251.93 30.07 C 261.78 33.57 273.22 35.27 284.00 36.00 Z"/>
</g>
<g fill="None" fill-opacity="0.0" stroke="#1D93FD" stroke-opacity="1.00" stroke-width="0.3"><path d="
M 284.00 31.00 
L 284.00 0.00
L 224.00 0.00
C 222.43 6.47 233.08 2.50 232.00 8.00
C 252.16 10.63 266.39 23.79 284.00 31.00 Z"/>
</g>
<g fill="None" fill-opacity="0.0" stroke="#1821C5" stroke-opacity="1.00" stroke-width="0.3"><path d="
M 0.00 98.00 
C 19.51 105.81 42.28 107.05 64.00 106.00
C 58.15 102.82 61.68 90.30 53.25 87.75 C 44.82 85.19 48.82 71.96 40.00 72.00
C 36.96 63.72 28.75 56.15 21.25 50.75 C 13.76 45.34 8.30 35.62 0.00 32.00
L 0.00 98.00 Z"/>
</g>
<g fill="None" fill-opacity="0.0" stroke="#1369F8" stroke-opacity="1.00" stroke-width="0.3"><path d="
M 244.00 63.00 
C 245.55 62.88 248.30 60.84 248.00 64.00
C 230.70 67.87 213.27 74.33 198.00 83.00
C 223.05 74.51 247.82 64.59 272.00 59.00
C 263.08 56.35 252.05 60.03 244.00 63.00 Z"/>
</g>
<g fill="None" fill-opacity="0.0" stroke="#1094FA" stroke-opacity="1.00" stroke-width="0.3"><path d="
M 244.00 63.00 
C 240.25 63.29 236.55 64.05 233.00 65.00
C 225.88 66.90 219.07 70.06 212.00 72.00
C 195.40 78.52 179.24 88.93 163.00 96.00
C 163.47 95.30 160.82 101.12 156.75 101.75 C 152.69 102.39 149.72 105.56 147.00 108.00
C 163.65 99.48 180.23 88.39 198.00 83.00
C 213.27 74.33 230.70 67.87 248.00 64.00
C 248.30 60.84 245.55 62.88 244.00 63.00 Z"/>
</g>
<g fill="None" fill-opacity="0.0" stroke="#163FE5" stroke-opacity="1.00" stroke-width="0.3"><path d="
M 163.00 87.00 
C 153.43 89.26 142.10 91.58 134.00 96.00
C 114.82 106.46 95.09 111.34 73.32 116.32 C 51.56 121.31 21.30 122.76 0.00 115.00
L 0.00 129.00
C 9.34 130.83 17.30 132.89 27.00 134.00 C 36.71 135.10 47.94 132.62 57.07 132.07 C 66.20 131.52 75.72 128.45 82.00 132.00
C 80.93 133.87 77.62 133.57 77.00 136.00
C 79.66 138.48 81.98 134.11 85.00 135.00
C 75.01 141.29 62.69 145.07 51.00 148.00
C 57.51 150.07 64.78 143.62 72.00 144.00
C 77.01 142.48 83.20 139.14 88.00 137.00
C 87.20 137.70 92.71 131.67 96.75 130.75 C 100.78 129.83 106.07 126.83 109.00 124.00
C 105.37 124.00 101.05 128.35 98.00 126.00
C 119.22 117.74 138.02 105.35 159.00 97.00
C 160.17 96.60 161.95 96.46 163.00 96.00
C 179.24 88.93 195.40 78.52 212.00 72.00
C 195.43 76.56 180.15 82.95 163.00 87.00 Z"/>
</g>
<g fill="None" fill-opacity="0.0" stroke="#1623CA" stroke-opacity="1.00" stroke-width="0.3"><path d="
M 131.00 116.00 
C 128.46 117.00 126.45 119.01 124.00 120.00
C 121.79 121.48 119.69 122.78 117.00 124.00
C 115.49 124.68 113.32 125.23 112.00 126.00
C 111.43 126.33 110.55 127.71 110.00 128.00
C 132.39 129.07 156.90 133.81 180.00 131.00
C 179.79 134.02 178.44 135.89 176.00 137.00
C 184.86 138.97 196.35 132.69 203.00 139.00
C 191.03 140.33 180.05 144.82 168.00 146.00
C 173.30 141.20 161.37 140.54 155.26 145.26 C 149.14 149.97 141.22 144.16 135.00 144.00 C 128.78 143.85 118.75 148.01 112.00 148.00
C 103.38 133.91 85.26 139.61 72.00 144.00
C 64.78 143.62 57.51 150.07 51.00 148.00
C 62.69 145.07 75.01 141.29 85.00 135.00
C 81.98 134.11 79.66 138.48 77.00 136.00
C 77.62 133.57 80.93 133.87 82.00 132.00
C 75.72 128.45 66.20 131.52 57.07 132.07 C 47.94 132.62 36.71 135.10 27.00 134.00 C 17.30 132.89 9.34 130.83 0.00 129.00
L 0.00 135.00
C 17.41 139.81 36.15 137.99 54.00 139.00
C 48.23 143.86 41.56 144.37 33.98 146.98 C 26.39 149.58 12.96 146.36 8.00 152.00
C 5.09 152.59 2.94 150.41 0.00 151.00
L 0.00 157.00
C 4.41 157.29 9.13 159.04 13.00 160.00
C 35.83 163.26 57.90 157.50 80.00 156.00
C 85.09 154.70 90.30 153.71 96.00 153.00
C 100.73 151.83 107.59 148.81 113.00 149.00 C 118.41 149.19 128.20 144.50 128.00 153.00
C 139.69 151.32 149.45 153.17 160.22 150.22 C 170.99 147.28 181.86 144.74 192.00 145.00
C 179.24 149.70 163.73 151.14 153.00 159.00
C 159.14 159.11 161.13 165.16 160.00 171.00
C 168.50 174.97 179.36 170.40 186.00 177.00
L 220.00 177.00
C 243.32 159.81 260.81 143.75 284.00 126.00
L 284.00 72.00
C 258.81 73.23 233.30 82.36 210.02 89.02 C 186.75 95.69 166.85 107.14 144.00 111.00
C 144.60 116.65 129.34 118.75 131.00 116.00
M 276.00 89.00 
C 256.10 104.67 229.25 100.08 205.00 99.00
C 206.64 96.56 209.82 94.81 205.00 93.00
C 216.24 88.96 229.14 83.08 241.07 82.07 C 253.01 81.06 274.63 72.53 276.00 89.00
M 256.00 130.00 
C 254.80 133.86 249.82 135.37 246.00 136.00
C 245.92 139.11 250.11 138.56 252.00 140.00
C 250.27 144.28 246.85 148.83 243.08 151.08 C 239.32 153.33 235.80 159.40 230.99 159.99 C 226.18 160.58 215.72 162.29 216.00 156.00
C 205.48 159.41 195.16 163.56 184.00 165.00
C 182.93 162.80 188.15 161.35 186.00 160.00
C 183.26 161.76 182.87 161.71 180.00 160.00
C 182.09 157.21 185.17 155.04 184.00 151.00
C 205.72 141.38 232.28 136.94 256.00 130.00 Z"/>
</g>
<g fill="None" fill-opacity="0.0" stroke="#11139D" stroke-opacity="1.00" stroke-width="0.3"><path d="
M 276.00 89.00 
C 274.63 72.53 253.01 81.06 241.07 82.07 C 229.14 83.08 216.24 88.96 205.00 93.00
C 209.82 94.81 206.64 96.56 205.00 99.00
C 229.25 100.08 256.10 104.67 276.00 89.00 Z"/>
</g>
<g fill="None" fill-opacity="0.0" stroke="#141DC0" stroke-opacity="1.00" stroke-width="0.3"><path d="
M 0.00 101.00 
L 0.00 115.00
C 21.30 122.76 51.56 121.31 73.32 116.32 C 95.09 111.34 114.82 106.46 134.00 96.00
C 119.31 101.90 107.09 105.78 91.67 110.67 C 76.25 115.56 57.89 113.97 41.00 116.00 C 24.11 118.03 11.16 111.09 0.00 101.00 Z"/>
</g>
<g fill="None" fill-opacity="0.0" stroke="#0BB1FA" stroke-opacity="1.00" stroke-width="0.3"><path d="
M 159.00 97.00 
C 148.94 101.73 137.32 108.99 128.00 115.00
C 125.93 116.33 123.89 118.52 122.00 120.00
C 122.40 119.80 123.57 120.17 124.00 120.00
C 126.45 119.01 128.46 117.00 131.00 116.00
C 131.00 116.00 131.53 116.11 132.00 116.00
C 135.54 112.54 140.49 110.86 145.00 109.00
C 145.74 108.69 146.28 108.37 147.00 108.00
C 149.72 105.56 152.69 102.39 156.75 101.75 C 160.82 101.12 163.47 95.30 163.00 96.00
C 161.95 96.46 160.17 96.60 159.00 97.00 Z"/>
</g>
<g fill="None" fill-opacity="0.0" stroke="#146EF7" stroke-opacity="1.00" stroke-width="0.3"><path d="
M 88.00 137.00 
C 95.14 133.81 103.28 131.53 110.00 128.00
C 110.55 127.71 111.43 126.33 112.00 126.00
C 111.93 126.13 113.68 122.08 117.70 120.70 C 121.71 119.31 124.44 116.70 128.00 115.00
C 137.32 108.99 148.94 101.73 159.00 97.00
C 138.02 105.35 119.22 117.74 98.00 126.00
C 101.05 128.35 105.37 124.00 109.00 124.00
C 106.07 126.83 100.78 129.83 96.75 130.75 C 92.71 131.67 87.20 137.70 88.00 137.00 Z"/>
</g>
<g fill="None" fill-opacity="0.0" stroke="#0F69F3" stroke-opacity="1.00" stroke-width="0.3"><path d="
M 132.00 116.00 
C 136.89 114.85 141.37 112.25 145.00 109.00
C 140.49 110.86 135.54 112.54 132.00 116.00 Z"/>
</g>
<g fill="None" fill-opacity="0.0" stroke="#0F90FA" stroke-opacity="1.00" stroke-width="0.3"><path d="
M 112.00 126.00 
C 113.32 125.23 115.49 124.68 117.00 124.00
C 118.60 123.02 120.29 120.84 122.00 120.00
C 123.89 118.52 125.93 116.33 128.00 115.00
C 124.44 116.70 121.71 119.31 117.70 120.70 C 113.68 122.08 111.93 126.13 112.00 126.00 Z"/>
</g>
<g fill="None" fill-opacity="0.0" stroke="#0A6BEC" stroke-opacity="1.00" stroke-width="0.3"><path d="
M 117.00 124.00 
C 119.69 122.78 121.79 121.48 124.00 120.00
C 123.57 120.17 122.40 119.80 122.00 120.00
C 120.29 120.84 118.60 123.02 117.00 124.00 Z"/>
</g>
<g fill="None" fill-opacity="0.0" stroke="#130B9A" stroke-opacity="1.00" stroke-width="0.3"><path d="
M 220.00 177.00 
L 284.00 177.00
L 284.00 126.00
C 260.81 143.75 243.32 159.81 220.00 177.00 Z"/>
</g>
<g fill="None" fill-opacity="0.0" stroke="#111BA6" stroke-opacity="1.00" stroke-width="0.3"><path d="
M 88.00 137.00 
C 83.20 139.14 77.01 142.48 72.00 144.00
C 85.26 139.61 103.38 133.91 112.00 148.00
C 118.75 148.01 128.78 143.85 135.00 144.00 C 141.22 144.16 149.14 149.97 155.26 145.26 C 161.37 140.54 173.30 141.20 168.00 146.00
C 180.05 144.82 191.03 140.33 203.00 139.00
C 196.35 132.69 184.86 138.97 176.00 137.00
C 178.44 135.89 179.79 134.02 180.00 131.00
C 156.90 133.81 132.39 129.07 110.00 128.00
C 103.28 131.53 95.14 133.81 88.00 137.00 Z"/>
</g>
<g fill="None" fill-opacity="0.0" stroke="#120E9D" stroke-opacity="1.00" stroke-width="0.3"><path d="
M 256.00 130.00 
C 232.28 136.94 205.72 141.38 184.00 151.00
C 185.17 155.04 182.09 157.21 180.00 160.00
C 182.87 161.71 183.26 161.76 186.00 160.00
C 188.15 161.35 182.93 162.80 184.00 165.00
C 195.16 163.56 205.48 159.41 216.00 156.00
C 215.72 162.29 226.18 160.58 230.99 159.99 C 235.80 159.40 239.32 153.33 243.08 151.08 C 246.85 148.83 250.27 144.28 252.00 140.00
C 250.11 138.56 245.92 139.11 246.00 136.00
C 249.82 135.37 254.80 133.86 256.00 130.00 Z"/>
</g>
<g fill="None" fill-opacity="0.0" stroke="#12119F" stroke-opacity="1.00" stroke-width="0.3"><path d="
M 0.00 151.00 
C 2.94 150.41 5.09 152.59 8.00 152.00
C 12.96 146.36 26.39 149.58 33.98 146.98 C 41.56 144.37 48.23 143.86 54.00 139.00
C 36.15 137.99 17.41 139.81 0.00 135.00
L 0.00 151.00 Z"/>
</g>
<g fill="None" fill-opacity="0.0" stroke="#1A40E5" stroke-opacity="1.00" stroke-width="0.3"><path d="
M 96.00 153.00 
C 101.40 152.33 106.94 149.55 112.00 153.00
C 112.57 163.96 121.53 157.13 128.22 157.22 C 134.91 157.31 142.83 155.76 150.00 155.00
C 147.80 157.46 144.40 159.72 141.00 160.00
C 140.37 163.45 144.68 164.51 147.00 166.00
C 143.61 168.30 142.78 173.65 147.00 177.00
L 186.00 177.00
C 179.36 170.40 168.50 174.97 160.00 171.00
C 161.13 165.16 159.14 159.11 153.00 159.00
C 163.73 151.14 179.24 149.70 192.00 145.00
C 181.86 144.74 170.99 147.28 160.22 150.22 C 149.45 153.17 139.69 151.32 128.00 153.00
C 128.20 144.50 118.41 149.19 113.00 149.00 C 107.59 148.81 100.73 151.83 96.00 153.00 Z"/>
</g>
<g fill="None" fill-opacity="0.0" stroke="#1B5EF7" stroke-opacity="1.00" stroke-width="0.3"><path d="
M 96.00 153.00 
C 90.30 153.71 85.09 154.70 80.00 156.00
C 82.65 155.82 85.34 156.14 88.00 156.00
C 87.87 160.11 87.48 160.31 93.00 160.00
C 92.64 163.26 96.94 165.76 94.00 169.00
C 102.25 168.98 109.17 164.67 117.00 163.00
C 118.99 162.52 120.98 162.49 123.00 162.00
C 127.86 160.32 134.76 156.07 140.00 159.00
C 135.48 160.51 132.17 164.65 128.00 167.00
C 130.55 168.38 133.72 168.10 136.00 170.00
C 133.41 172.38 130.98 175.28 128.00 177.00
L 147.00 177.00
C 142.78 173.65 143.61 168.30 147.00 166.00
C 144.68 164.51 140.37 163.45 141.00 160.00
C 144.40 159.72 147.80 157.46 150.00 155.00
C 142.83 155.76 134.91 157.31 128.22 157.22 C 121.53 157.13 112.57 163.96 112.00 153.00
C 106.94 149.55 101.40 152.33 96.00 153.00 Z"/>
</g>
<g fill="None" fill-opacity="0.0" stroke="#1A7AFC" stroke-opacity="1.00" stroke-width="0.3"><path d="
M 13.00 160.00 
C 8.56 159.37 4.35 159.01 0.00 158.00
L 0.00 159.00
C 7.04 160.58 13.46 162.00 21.00 162.00
C 31.46 162.00 42.61 162.42 53.00 162.00 C 63.39 161.58 69.58 167.32 79.00 168.00
C 83.76 178.09 97.92 170.48 106.00 168.00
C 106.49 167.94 107.51 168.08 108.00 168.00
C 110.75 166.65 114.38 163.95 117.00 163.00
C 109.17 164.67 102.25 168.98 94.00 169.00
C 96.94 165.76 92.64 163.26 93.00 160.00
C 87.48 160.31 87.87 160.11 88.00 156.00
C 85.34 156.14 82.65 155.82 80.00 156.00
C 57.90 157.50 35.83 163.26 13.00 160.00 Z"/>
</g>
<g fill="None" fill-opacity="0.0" stroke="#1B51E7" stroke-opacity="1.00" stroke-width="0.3"><path d="
M 0.00 158.00 
C 4.35 159.01 8.56 159.37 13.00 160.00
C 9.13 159.04 4.41 157.29 0.00 157.00
L 0.00 158.00 Z"/>
</g>
<g fill="None" fill-opacity="0.0" stroke="#1974FC" stroke-opacity="1.00" stroke-width="0.3"><path d="
M 123.00 162.00 
C 126.31 161.20 131.04 158.44 134.00 161.00
C 123.86 165.90 112.72 170.03 104.00 177.00
L 128.00 177.00
C 130.98 175.28 133.41 172.38 136.00 170.00
C 133.72 168.10 130.55 168.38 128.00 167.00
C 132.17 164.65 135.48 160.51 140.00 159.00
C 134.76 156.07 127.86 160.32 123.00 162.00 Z"/>
</g>
<g fill="None" fill-opacity="0.0" stroke="#14AAFD" stroke-opacity="1.00" stroke-width="0.3"><path d="
M 0.00 166.00 
C 7.95 169.29 15.95 173.39 24.00 177.00
L 59.00 177.00
C 53.44 171.04 44.43 166.43 36.00 168.00
C 39.30 163.53 22.41 166.75 21.00 162.00
C 13.46 162.00 7.04 160.58 0.00 159.00
L 0.00 166.00 Z"/>
</g>
<g fill="None" fill-opacity="0.0" stroke="#1793FB" stroke-opacity="1.00" stroke-width="0.3"><path d="
M 123.00 162.00 
C 120.98 162.49 118.99 162.52 117.00 163.00
C 114.38 163.95 110.75 166.65 108.00 168.00
C 110.50 167.57 113.92 164.47 116.00 167.00
C 109.83 170.11 102.81 172.18 98.00 177.00
L 104.00 177.00
C 112.72 170.03 123.86 165.90 134.00 161.00
C 131.04 158.44 126.31 161.20 123.00 162.00 Z"/>
</g>
<g fill="None" fill-opacity="0.0" stroke="#1790FC" stroke-opacity="1.00" stroke-width="0.3"><path d="
M 59.00 177.00 
L 88.00 177.00
C 93.39 173.25 100.31 170.90 106.00 168.00
C 97.92 170.48 83.76 178.09 79.00 168.00
C 69.58 167.32 63.39 161.58 53.00 162.00 C 42.61 162.42 31.46 162.00 21.00 162.00
C 22.41 166.75 39.30 163.53 36.00 168.00
C 44.43 166.43 53.44 171.04 59.00 177.00 Z"/>
</g>
<g fill="None" fill-opacity="0.0" stroke="#0FC1FE" stroke-opacity="1.00" stroke-width="0.3"><path d="
M 0.00 177.00 
L 24.00 177.00
C 15.95 173.39 7.95 169.29 0.00 166.00
L 0.00 177.00 Z"/>
</g>
<g fill="None" fill-opacity="0.0" stroke="#17B1FD" stroke-opacity="1.00" stroke-width="0.3"><path d="
M 108.00 168.00 
C 107.51 168.08 106.49 167.94 106.00 168.00
C 100.31 170.90 93.39 173.25 88.00 177.00
L 98.00 177.00
C 102.81 172.18 109.83 170.11 116.00 167.00
C 113.92 164.47 110.50 167.57 108.00 168.00 Z"/>
</g>
<g fill="#111896" fill-opacity="1.00" stroke="None">
<path d="
M 0.00 32.00 
C 8.30 35.62 13.76 45.34 21.25 50.75 C 28.75 56.15 36.96 63.72 40.00 72.00
C 48.82 71.96 44.82 85.19 53.25 87.75 C 61.68 90.30 58.15 102.82 64.00 106.00
C 42.28 107.05 19.51 105.81 0.00 98.00
L 0.00 101.00
C 11.16 111.09 24.11 118.03 41.00 116.00 C 57.89 113.97 76.25 115.56 91.67 110.67 C 107.09 105.78 119.31 101.90 134.00 96.00
C 142.10 91.58 153.43 89.26 163.00 87.00
C 172.36 83.80 183.13 79.01 192.00 75.00
C 193.46 74.34 195.87 73.33 197.00 72.00
C 187.49 74.23 177.96 71.01 168.00 72.00
C 169.59 63.21 158.00 65.24 152.00 64.00
C 149.52 57.43 143.66 51.97 137.90 48.10 C 132.14 44.23 120.61 41.70 123.00 32.00
C 116.46 30.62 111.81 26.34 105.00 26.00
C 104.70 21.12 100.78 19.39 96.00 20.00
C 91.73 13.19 85.55 7.50 80.00 0.00
L 0.00 0.00
L 0.00 32.00 Z"/>
</g>
<g fill="#112AA8" fill-opacity="1.00" stroke="None">
<path d="
M 192.00 75.00 
C 201.43 72.77 209.25 70.67 218.00 67.00
C 214.33 56.70 196.30 61.41 192.00 53.00
C 186.41 53.34 181.24 52.12 176.00 51.00
C 173.98 43.69 157.60 45.08 160.00 34.00
C 157.33 33.33 155.23 31.06 152.00 32.00
C 151.21 25.92 142.03 23.85 136.00 24.00
C 137.63 18.50 131.25 20.22 128.00 20.00
C 128.99 15.23 122.70 17.55 120.00 17.00
C 122.13 9.74 111.01 10.43 112.00 4.00
C 109.46 2.74 104.32 3.74 104.00 0.00
L 80.00 0.00
C 85.55 7.50 91.73 13.19 96.00 20.00
C 100.78 19.39 104.70 21.12 105.00 26.00
C 111.81 26.34 116.46 30.62 123.00 32.00
C 120.61 41.70 132.14 44.23 137.90 48.10 C 143.66 51.97 149.52 57.43 152.00 64.00
C 158.00 65.24 169.59 63.21 168.00 72.00
C 177.96 71.01 187.49 74.23 197.00 72.00
C 195.87 73.33 193.46 74.34 192.00 75.00 Z"/>
</g>
<g fill="#1436BF" fill-opacity="1.00" stroke="None">
<path d="
M 192.00 75.00 
C 183.13 79.01 172.36 83.80 163.00 87.00
C 180.15 82.95 195.43 76.56 212.00 72.00
C 219.07 70.06 225.88 66.90 233.00 65.00
C 235.37 63.49 237.73 60.59 240.00 59.00
C 237.48 57.86 234.92 56.76 232.00 57.00
C 228.85 46.40 212.44 44.24 211.00 32.00
C 203.40 28.54 193.45 27.32 184.33 26.67 C 175.21 26.02 168.79 20.05 160.00 19.00
C 159.14 11.68 147.18 13.83 146.00 6.00
C 141.88 6.72 137.10 3.69 136.00 0.00
L 104.00 0.00
C 104.32 3.74 109.46 2.74 112.00 4.00
C 111.01 10.43 122.13 9.74 120.00 17.00
C 122.70 17.55 128.99 15.23 128.00 20.00
C 131.25 20.22 137.63 18.50 136.00 24.00
C 142.03 23.85 151.21 25.92 152.00 32.00
C 155.23 31.06 157.33 33.33 160.00 34.00
C 157.60 45.08 173.98 43.69 176.00 51.00
C 181.24 52.12 186.41 53.34 192.00 53.00
C 196.30 61.41 214.33 56.70 218.00 67.00
C 209.25 70.67 201.43 72.77 192.00 75.00 Z"/>
</g>
<g fill="#1741E0" fill-opacity="1.00" stroke="None">
<path d="
M 233.00 65.00 
C 236.55 64.05 240.25 63.29 244.00 63.00
C 252.05 60.03 263.08 56.35 272.00 59.00
C 247.82 64.59 223.05 74.51 198.00 83.00
C 180.23 88.39 163.65 99.48 147.00 108.00
C 146.28 108.37 145.74 108.69 145.00 109.00
C 141.37 112.25 136.89 114.85 132.00 116.00
C 131.53 116.11 131.00 116.00 131.00 116.00
C 129.34 118.75 144.60 116.65 144.00 111.00
C 166.85 107.14 186.75 95.69 210.02 89.02 C 233.30 82.36 258.81 73.23 284.00 72.00
L 284.00 40.00
C 260.20 34.98 231.83 31.31 208.00 28.00 C 184.17 24.69 166.03 13.23 148.00 0.00
L 136.00 0.00
C 137.10 3.69 141.88 6.72 146.00 6.00
C 147.18 13.83 159.14 11.68 160.00 19.00
C 168.79 20.05 175.21 26.02 184.33 26.67 C 193.45 27.32 203.40 28.54 211.00 32.00
C 212.44 44.24 228.85 46.40 232.00 57.00
C 234.92 56.76 237.48 57.86 240.00 59.00
C 237.73 60.59 235.37 63.49 233.00 65.00 Z"/>
</g>
<g fill="#1C5FE8" fill-opacity="1.00" stroke="None">
<path d="
M 284.00 40.00 
L 284.00 36.00
C 273.22 35.27 261.78 33.57 251.93 30.07 C 242.07 26.57 228.25 30.74 224.00 21.00
C 214.66 20.98 208.18 14.32 200.92 11.08 C 193.67 7.83 185.19 6.26 179.00 0.00
L 148.00 0.00
C 166.03 13.23 184.17 24.69 208.00 28.00 C 231.83 31.31 260.20 34.98 284.00 40.00 Z"/>
</g>
<g fill="#1F7CF7" fill-opacity="1.00" stroke="None">
<path d="
M 284.00 36.00 
L 284.00 31.00
C 266.39 23.79 252.16 10.63 232.00 8.00
C 233.08 2.50 222.43 6.47 224.00 0.00
L 179.00 0.00
C 185.19 6.26 193.67 7.83 200.92 11.08 C 208.18 14.32 214.66 20.98 224.00 21.00
C 228.25 30.74 242.07 26.57 251.93 30.07 C 261.78 33.57 273.22 35.27 284.00 36.00 Z"/>
</g>
<g fill="#1D93FD" fill-opacity="1.00" stroke="None">
<path d="
M 284.00 31.00 
L 284.00 0.00
L 224.00 0.00
C 222.43 6.47 233.08 2.50 232.00 8.00
C 252.16 10.63 266.39 23.79 284.00 31.00 Z"/>
</g>
<g fill="#1821C5" fill-opacity="1.00" stroke="None">
<path d="
M 0.00 98.00 
C 19.51 105.81 42.28 107.05 64.00 106.00
C 58.15 102.82 61.68 90.30 53.25 87.75 C 44.82 85.19 48.82 71.96 40.00 72.00
C 36.96 63.72 28.75 56.15 21.25 50.75 C 13.76 45.34 8.30 35.62 0.00 32.00
L 0.00 98.00 Z"/>
</g>
<g fill="#1369F8" fill-opacity="1.00" stroke="None">
<path d="
M 244.00 63.00 
C 245.55 62.88 248.30 60.84 248.00 64.00
C 230.70 67.87 213.27 74.33 198.00 83.00
C 223.05 74.51 247.82 64.59 272.00 59.00
C 263.08 56.35 252.05 60.03 244.00 63.00 Z"/>
</g>
<g fill="#1094FA" fill-opacity="1.00" stroke="None">
<path d="
M 244.00 63.00 
C 240.25 63.29 236.55 64.05 233.00 65.00
C 225.88 66.90 219.07 70.06 212.00 72.00
C 195.40 78.52 179.24 88.93 163.00 96.00
C 163.47 95.30 160.82 101.12 156.75 101.75 C 152.69 102.39 149.72 105.56 147.00 108.00
C 163.65 99.48 180.23 88.39 198.00 83.00
C 213.27 74.33 230.70 67.87 248.00 64.00
C 248.30 60.84 245.55 62.88 244.00 63.00 Z"/>
</g>
<g fill="#163FE5" fill-opacity="1.00" stroke="None">
<path d="
M 163.00 87.00 
C 153.43 89.26 142.10 91.58 134.00 96.00
C 114.82 106.46 95.09 111.34 73.32 116.32 C 51.56 121.31 21.30 122.76 0.00 115.00
L 0.00 129.00
C 9.34 130.83 17.30 132.89 27.00 134.00 C 36.71 135.10 47.94 132.62 57.07 132.07 C 66.20 131.52 75.72 128.45 82.00 132.00
C 80.93 133.87 77.62 133.57 77.00 136.00
C 79.66 138.48 81.98 134.11 85.00 135.00
C 75.01 141.29 62.69 145.07 51.00 148.00
C 57.51 150.07 64.78 143.62 72.00 144.00
C 77.01 142.48 83.20 139.14 88.00 137.00
C 87.20 137.70 92.71 131.67 96.75 130.75 C 100.78 129.83 106.07 126.83 109.00 124.00
C 105.37 124.00 101.05 128.35 98.00 126.00
C 119.22 117.74 138.02 105.35 159.00 97.00
C 160.17 96.60 161.95 96.46 163.00 96.00
C 179.24 88.93 195.40 78.52 212.00 72.00
C 195.43 76.56 180.15 82.95 163.00 87.00 Z"/>
</g>
<g fill="#1623CA" fill-opacity="1.00" stroke="None">
<path d="
M 131.00 116.00 
C 128.46 117.00 126.45 119.01 124.00 120.00
C 121.79 121.48 119.69 122.78 117.00 124.00
C 115.49 124.68 113.32 125.23 112.00 126.00
C 111.43 126.33 110.55 127.71 110.00 128.00
C 132.39 129.07 156.90 133.81 180.00 131.00
C 179.79 134.02 178.44 135.89 176.00 137.00
C 184.86 138.97 196.35 132.69 203.00 139.00
C 191.03 140.33 180.05 144.82 168.00 146.00
C 173.30 141.20 161.37 140.54 155.26 145.26 C 149.14 149.97 141.22 144.16 135.00 144.00 C 128.78 143.85 118.75 148.01 112.00 148.00
C 103.38 133.91 85.26 139.61 72.00 144.00
C 64.78 143.62 57.51 150.07 51.00 148.00
C 62.69 145.07 75.01 141.29 85.00 135.00
C 81.98 134.11 79.66 138.48 77.00 136.00
C 77.62 133.57 80.93 133.87 82.00 132.00
C 75.72 128.45 66.20 131.52 57.07 132.07 C 47.94 132.62 36.71 135.10 27.00 134.00 C 17.30 132.89 9.34 130.83 0.00 129.00
L 0.00 135.00
C 17.41 139.81 36.15 137.99 54.00 139.00
C 48.23 143.86 41.56 144.37 33.98 146.98 C 26.39 149.58 12.96 146.36 8.00 152.00
C 5.09 152.59 2.94 150.41 0.00 151.00
L 0.00 157.00
C 4.41 157.29 9.13 159.04 13.00 160.00
C 35.83 163.26 57.90 157.50 80.00 156.00
C 85.09 154.70 90.30 153.71 96.00 153.00
C 100.73 151.83 107.59 148.81 113.00 149.00 C 118.41 149.19 128.20 144.50 128.00 153.00
C 139.69 151.32 149.45 153.17 160.22 150.22 C 170.99 147.28 181.86 144.74 192.00 145.00
C 179.24 149.70 163.73 151.14 153.00 159.00
C 159.14 159.11 161.13 165.16 160.00 171.00
C 168.50 174.97 179.36 170.40 186.00 177.00
L 220.00 177.00
C 243.32 159.81 260.81 143.75 284.00 126.00
L 284.00 72.00
C 258.81 73.23 233.30 82.36 210.02 89.02 C 186.75 95.69 166.85 107.14 144.00 111.00
C 144.60 116.65 129.34 118.75 131.00 116.00
M 276.00 89.00 
C 256.10 104.67 229.25 100.08 205.00 99.00
C 206.64 96.56 209.82 94.81 205.00 93.00
C 216.24 88.96 229.14 83.08 241.07 82.07 C 253.01 81.06 274.63 72.53 276.00 89.00
M 256.00 130.00 
C 254.80 133.86 249.82 135.37 246.00 136.00
C 245.92 139.11 250.11 138.56 252.00 140.00
C 250.27 144.28 246.85 148.83 243.08 151.08 C 239.32 153.33 235.80 159.40 230.99 159.99 C 226.18 160.58 215.72 162.29 216.00 156.00
C 205.48 159.41 195.16 163.56 184.00 165.00
C 182.93 162.80 188.15 161.35 186.00 160.00
C 183.26 161.76 182.87 161.71 180.00 160.00
C 182.09 157.21 185.17 155.04 184.00 151.00
C 205.72 141.38 232.28 136.94 256.00 130.00 Z"/>
</g>
<g fill="#11139D" fill-opacity="1.00" stroke="None">
<path d="
M 276.00 89.00 
C 274.63 72.53 253.01 81.06 241.07 82.07 C 229.14 83.08 216.24 88.96 205.00 93.00
C 209.82 94.81 206.64 96.56 205.00 99.00
C 229.25 100.08 256.10 104.67 276.00 89.00 Z"/>
</g>
<g fill="#141DC0" fill-opacity="1.00" stroke="None">
<path d="
M 0.00 101.00 
L 0.00 115.00
C 21.30 122.76 51.56 121.31 73.32 116.32 C 95.09 111.34 114.82 106.46 134.00 96.00
C 119.31 101.90 107.09 105.78 91.67 110.67 C 76.25 115.56 57.89 113.97 41.00 116.00 C 24.11 118.03 11.16 111.09 0.00 101.00 Z"/>
</g>
<g fill="#0BB1FA" fill-opacity="1.00" stroke="None">
<path d="
M 159.00 97.00 
C 148.94 101.73 137.32 108.99 128.00 115.00
C 125.93 116.33 123.89 118.52 122.00 120.00
C 122.40 119.80 123.57 120.17 124.00 120.00
C 126.45 119.01 128.46 117.00 131.00 116.00
C 131.00 116.00 131.53 116.11 132.00 116.00
C 135.54 112.54 140.49 110.86 145.00 109.00
C 145.74 108.69 146.28 108.37 147.00 108.00
C 149.72 105.56 152.69 102.39 156.75 101.75 C 160.82 101.12 163.47 95.30 163.00 96.00
C 161.95 96.46 160.17 96.60 159.00 97.00 Z"/>
</g>
<g fill="#146EF7" fill-opacity="1.00" stroke="None">
<path d="
M 88.00 137.00 
C 95.14 133.81 103.28 131.53 110.00 128.00
C 110.55 127.71 111.43 126.33 112.00 126.00
C 111.93 126.13 113.68 122.08 117.70 120.70 C 121.71 119.31 124.44 116.70 128.00 115.00
C 137.32 108.99 148.94 101.73 159.00 97.00
C 138.02 105.35 119.22 117.74 98.00 126.00
C 101.05 128.35 105.37 124.00 109.00 124.00
C 106.07 126.83 100.78 129.83 96.75 130.75 C 92.71 131.67 87.20 137.70 88.00 137.00 Z"/>
</g>
<g fill="#0F69F3" fill-opacity="1.00" stroke="None">
<path d="
M 132.00 116.00 
C 136.89 114.85 141.37 112.25 145.00 109.00
C 140.49 110.86 135.54 112.54 132.00 116.00 Z"/>
</g>
<g fill="#0F90FA" fill-opacity="1.00" stroke="None">
<path d="
M 112.00 126.00 
C 113.32 125.23 115.49 124.68 117.00 124.00
C 118.60 123.02 120.29 120.84 122.00 120.00
C 123.89 118.52 125.93 116.33 128.00 115.00
C 124.44 116.70 121.71 119.31 117.70 120.70 C 113.68 122.08 111.93 126.13 112.00 126.00 Z"/>
</g>
<g fill="#0A6BEC" fill-opacity="1.00" stroke="None">
<path d="
M 117.00 124.00 
C 119.69 122.78 121.79 121.48 124.00 120.00
C 123.57 120.17 122.40 119.80 122.00 120.00
C 120.29 120.84 118.60 123.02 117.00 124.00 Z"/>
</g>
<g fill="#130B9A" fill-opacity="1.00" stroke="None">
<path d="
M 220.00 177.00 
L 284.00 177.00
L 284.00 126.00
C 260.81 143.75 243.32 159.81 220.00 177.00 Z"/>
</g>
<g fill="#111BA6" fill-opacity="1.00" stroke="None">
<path d="
M 88.00 137.00 
C 83.20 139.14 77.01 142.48 72.00 144.00
C 85.26 139.61 103.38 133.91 112.00 148.00
C 118.75 148.01 128.78 143.85 135.00 144.00 C 141.22 144.16 149.14 149.97 155.26 145.26 C 161.37 140.54 173.30 141.20 168.00 146.00
C 180.05 144.82 191.03 140.33 203.00 139.00
C 196.35 132.69 184.86 138.97 176.00 137.00
C 178.44 135.89 179.79 134.02 180.00 131.00
C 156.90 133.81 132.39 129.07 110.00 128.00
C 103.28 131.53 95.14 133.81 88.00 137.00 Z"/>
</g>
<g fill="#120E9D" fill-opacity="1.00" stroke="None">
<path d="
M 256.00 130.00 
C 232.28 136.94 205.72 141.38 184.00 151.00
C 185.17 155.04 182.09 157.21 180.00 160.00
C 182.87 161.71 183.26 161.76 186.00 160.00
C 188.15 161.35 182.93 162.80 184.00 165.00
C 195.16 163.56 205.48 159.41 216.00 156.00
C 215.72 162.29 226.18 160.58 230.99 159.99 C 235.80 159.40 239.32 153.33 243.08 151.08 C 246.85 148.83 250.27 144.28 252.00 140.00
C 250.11 138.56 245.92 139.11 246.00 136.00
C 249.82 135.37 254.80 133.86 256.00 130.00 Z"/>
</g>
<g fill="#12119F" fill-opacity="1.00" stroke="None">
<path d="
M 0.00 151.00 
C 2.94 150.41 5.09 152.59 8.00 152.00
C 12.96 146.36 26.39 149.58 33.98 146.98 C 41.56 144.37 48.23 143.86 54.00 139.00
C 36.15 137.99 17.41 139.81 0.00 135.00
L 0.00 151.00 Z"/>
</g>
<g fill="#1A40E5" fill-opacity="1.00" stroke="None">
<path d="
M 96.00 153.00 
C 101.40 152.33 106.94 149.55 112.00 153.00
C 112.57 163.96 121.53 157.13 128.22 157.22 C 134.91 157.31 142.83 155.76 150.00 155.00
C 147.80 157.46 144.40 159.72 141.00 160.00
C 140.37 163.45 144.68 164.51 147.00 166.00
C 143.61 168.30 142.78 173.65 147.00 177.00
L 186.00 177.00
C 179.36 170.40 168.50 174.97 160.00 171.00
C 161.13 165.16 159.14 159.11 153.00 159.00
C 163.73 151.14 179.24 149.70 192.00 145.00
C 181.86 144.74 170.99 147.28 160.22 150.22 C 149.45 153.17 139.69 151.32 128.00 153.00
C 128.20 144.50 118.41 149.19 113.00 149.00 C 107.59 148.81 100.73 151.83 96.00 153.00 Z"/>
</g>
<g fill="#1B5EF7" fill-opacity="1.00" stroke="None">
<path d="
M 96.00 153.00 
C 90.30 153.71 85.09 154.70 80.00 156.00
C 82.65 155.82 85.34 156.14 88.00 156.00
C 87.87 160.11 87.48 160.31 93.00 160.00
C 92.64 163.26 96.94 165.76 94.00 169.00
C 102.25 168.98 109.17 164.67 117.00 163.00
C 118.99 162.52 120.98 162.49 123.00 162.00
C 127.86 160.32 134.76 156.07 140.00 159.00
C 135.48 160.51 132.17 164.65 128.00 167.00
C 130.55 168.38 133.72 168.10 136.00 170.00
C 133.41 172.38 130.98 175.28 128.00 177.00
L 147.00 177.00
C 142.78 173.65 143.61 168.30 147.00 166.00
C 144.68 164.51 140.37 163.45 141.00 160.00
C 144.40 159.72 147.80 157.46 150.00 155.00
C 142.83 155.76 134.91 157.31 128.22 157.22 C 121.53 157.13 112.57 163.96 112.00 153.00
C 106.94 149.55 101.40 152.33 96.00 153.00 Z"/>
</g>
<g fill="#1A7AFC" fill-opacity="1.00" stroke="None">
<path d="
M 13.00 160.00 
C 8.56 159.37 4.35 159.01 0.00 158.00
L 0.00 159.00
C 7.04 160.58 13.46 162.00 21.00 162.00
C 31.46 162.00 42.61 162.42 53.00 162.00 C 63.39 161.58 69.58 167.32 79.00 168.00
C 83.76 178.09 97.92 170.48 106.00 168.00
C 106.49 167.94 107.51 168.08 108.00 168.00
C 110.75 166.65 114.38 163.95 117.00 163.00
C 109.17 164.67 102.25 168.98 94.00 169.00
C 96.94 165.76 92.64 163.26 93.00 160.00
C 87.48 160.31 87.87 160.11 88.00 156.00
C 85.34 156.14 82.65 155.82 80.00 156.00
C 57.90 157.50 35.83 163.26 13.00 160.00 Z"/>
</g>
<g fill="#1B51E7" fill-opacity="1.00" stroke="None">
<path d="
M 0.00 158.00 
C 4.35 159.01 8.56 159.37 13.00 160.00
C 9.13 159.04 4.41 157.29 0.00 157.00
L 0.00 158.00 Z"/>
</g>
<g fill="#1974FC" fill-opacity="1.00" stroke="None">
<path d="
M 123.00 162.00 
C 126.31 161.20 131.04 158.44 134.00 161.00
C 123.86 165.90 112.72 170.03 104.00 177.00
L 128.00 177.00
C 130.98 175.28 133.41 172.38 136.00 170.00
C 133.72 168.10 130.55 168.38 128.00 167.00
C 132.17 164.65 135.48 160.51 140.00 159.00
C 134.76 156.07 127.86 160.32 123.00 162.00 Z"/>
</g>
<g fill="#14AAFD" fill-opacity="1.00" stroke="None">
<path d="
M 0.00 166.00 
C 7.95 169.29 15.95 173.39 24.00 177.00
L 59.00 177.00
C 53.44 171.04 44.43 166.43 36.00 168.00
C 39.30 163.53 22.41 166.75 21.00 162.00
C 13.46 162.00 7.04 160.58 0.00 159.00
L 0.00 166.00 Z"/>
</g>
<g fill="#1793FB" fill-opacity="1.00" stroke="None">
<path d="
M 123.00 162.00 
C 120.98 162.49 118.99 162.52 117.00 163.00
C 114.38 163.95 110.75 166.65 108.00 168.00
C 110.50 167.57 113.92 164.47 116.00 167.00
C 109.83 170.11 102.81 172.18 98.00 177.00
L 104.00 177.00
C 112.72 170.03 123.86 165.90 134.00 161.00
C 131.04 158.44 126.31 161.20 123.00 162.00 Z"/>
</g>
<g fill="#1790FC" fill-opacity="1.00" stroke="None">
<path d="
M 59.00 177.00 
L 88.00 177.00
C 93.39 173.25 100.31 170.90 106.00 168.00
C 97.92 170.48 83.76 178.09 79.00 168.00
C 69.58 167.32 63.39 161.58 53.00 162.00 C 42.61 162.42 31.46 162.00 21.00 162.00
C 22.41 166.75 39.30 163.53 36.00 168.00
C 44.43 166.43 53.44 171.04 59.00 177.00 Z"/>
</g>
<g fill="#0FC1FE" fill-opacity="1.00" stroke="None">
<path d="
M 0.00 177.00 
L 24.00 177.00
C 15.95 173.39 7.95 169.29 0.00 166.00
L 0.00 177.00 Z"/>
</g>
<g fill="#17B1FD" fill-opacity="1.00" stroke="None">
<path d="
M 108.00 168.00 
C 107.51 168.08 106.49 167.94 106.00 168.00
C 100.31 170.90 93.39 173.25 88.00 177.00
L 98.00 177.00
C 102.81 172.18 109.83 170.11 116.00 167.00
C 113.92 164.47 110.50 167.57 108.00 168.00 Z"/>
</g>
</svg>