<?xml version="1.0" encoding="UTF-8"?>
<svg version="1.1" xmlns="http://www.w3.org/2000/svg" width="996" height="664">
<path d="M0 0 C328.68 0 657.36 0 996 0 C996 219.12 996 438.24 996 664 C667.32 664 338.64 664 0 664 C0 444.88 0 225.76 0 0 Z " fill="#343534" transform="translate(0,0)"/>
<path d="M0 0 C-0.33 25.74 -0.66 51.48 -1 78 C-14.80405405 76.84966216 -14.80405405 76.84966216 -20.75 73.4375 C-21.36359375 73.10814453 -21.9771875 72.77878906 -22.609375 72.43945312 C-24.08314853 71.64499708 -25.54328925 70.82532576 -27 70 C-27 69.34 -27 68.68 -27 68 C-28.32 67.34 -29.64 66.68 -31 66 C-31 65.34 -31 64.68 -31 64 C-31.66 64 -32.32 64 -33 64 C-39.51661542 55.6318671 -42.85149982 45.55859782 -42 35 C-41.15116676 28.97433193 -39.43681762 24.07015669 -36 19 C-35.57847656 18.35160156 -35.15695313 17.70320313 -34.72265625 17.03515625 C-28.94472825 8.69637373 -21.35390759 3.12876272 -11.625 0.3125 C-7.77578042 -0.14574043 -3.87639984 0 0 0 Z " fill="#3B3C3C" transform="translate(52,370)"/>
<path d="M0 0 C1.59290361 0.13671778 3.18525316 0.27990046 4.77734375 0.42578125 C6.1075354 0.54433472 6.1075354 0.54433472 7.46459961 0.6652832 C15.46230593 1.72111906 24.96463541 7.65106204 30 14 C30 14.99 30 15.98 30 17 C30.66 17 31.32 17 32 17 C36.37232591 25.47138145 37.99811865 34.61807795 35.09375 43.89453125 C34.16085498 46.01020389 33.17802296 48.01208626 32 50 C29 50 29 50 26.3984375 47.4375 C25.38417102 46.29737563 24.37673804 45.15114767 23.375 44 C15.66414964 34.79710948 15.66414964 34.79710948 5.97265625 28.10473633 C3.54156817 26.9437842 1.85766576 25.96377145 0 24 C-1.00455057 19.86518448 -0.75674125 15.91138732 -0.5 11.6875 C-0.46390625 10.56537109 -0.4278125 9.44324219 -0.390625 8.28710938 C-0.29646821 5.52125379 -0.16512661 2.76237759 0 0 Z " fill="#565656" transform="translate(226,87)"/>
<path d="M0 0 C1.32 0.33 2.64 0.66 4 1 C4.11173565 10.08783274 3.89435273 18.9446786 3 28 C-4.92 28 -12.84 28 -21 28 C-21 20.08 -21 12.16 -21 4 C-10.605 3.505 -10.605 3.505 0 3 C0 2.01 0 1.02 0 0 Z " fill="#878988" transform="translate(98,106)"/>
<path d="M0 0 C6.24043008 2.77352448 11.05361907 7.49405272 15 13 C15 13.66 15 14.32 15 15 C15.99 15 16.98 15 18 15 C18 15.66 18 16.32 18 17 C18.66 17 19.32 17 20 17 C20.79953138 20.28696233 21.09658936 21.71023192 20 25 C17.6015625 26.5703125 17.6015625 26.5703125 14.625 28.125 C13.15933594 28.90230469 13.15933594 28.90230469 11.6640625 29.6953125 C8.21060808 31.3865937 5.61692566 32.12486763 1.8125 32.0625 C0.554375 32.041875 -0.70375 32.02125 -2 32 C-2.04938628 27.76417673 -2.08571263 23.52850535 -2.10986328 19.29248047 C-2.11992963 17.85104453 -2.1335838 16.40962905 -2.15087891 14.96826172 C-2.17510012 12.89806066 -2.18647641 10.82812924 -2.1953125 8.7578125 C-2.20578613 7.5114502 -2.21625977 6.26508789 -2.22705078 4.98095703 C-2 2 -2 2 0 0 Z " fill="#424242" transform="translate(228,123)"/>
<path d="M0 0 C7.26 0 14.52 0 22 0 C22 7.26 22 14.52 22 22 C14.74 22 7.48 22 0 22 C0 14.74 0 7.48 0 0 Z " fill="#848484" transform="translate(231,402)"/>
<path d="M0 0 C4.28501096 2.26853522 7.26405481 4.40485096 9 9 C9.2005815 13.58830192 8.60964772 17.01195025 6.1875 20.9375 C2.90938851 24.02829084 1.13962713 24.87337476 -3.375 25.375 C-7.72350969 24.92515417 -9.67276253 23.79790424 -13 21 C-15.37302167 18.07327328 -15.95966626 16.31690796 -16.4375 12.5625 C-15.90879625 8.2573409 -14.82657232 6.27287321 -12 3 C-7.94891762 0.35798975 -4.8162435 -0.70236884 0 0 Z " fill="#838383" transform="translate(270,526)"/>
<path d="M0 0 C5.61 0 11.22 0 17 0 C17 5.61 17 11.22 17 17 C11.39 17 5.78 17 0 17 C0 11.39 0 5.78 0 0 Z " fill="#838483" transform="translate(94,182)"/>
<path d="M0 0 C3.52414974 0.58735829 5.3452605 1.0728096 8 3.5 C9.14086163 7.2058333 9.82876831 11.97308969 8 15.5 C5.67109049 17.61057424 3.92260605 18.44334875 0.7734375 18.63671875 C-3.13468057 18.41394329 -5.30187127 18.19812873 -8.125 15.375 C-9.28201764 11.57337061 -9.09215994 9.3225598 -8 5.5 C-5.5036248 2.14772473 -4.15841453 0.69306909 0 0 Z " fill="#1D1D1D" transform="translate(311,560.5)"/>
<path d="M0 0 C0 7.26 0 14.52 0 22 C-3.12912467 20.74835013 -5.71373125 19.69858563 -8.55078125 18.0546875 C-9.16630859 17.70019531 -9.78183594 17.34570312 -10.41601562 16.98046875 C-11.04185547 16.61566406 -11.66769531 16.25085938 -12.3125 15.875 C-12.95767578 15.50246094 -13.60285156 15.12992187 -14.26757812 14.74609375 C-15.84675945 13.83367787 -17.42361864 12.91724491 -19 12 C-19 11.34 -19 10.68 -19 10 C-17.47119141 8.85498047 -17.47119141 8.85498047 -15.3515625 7.6171875 C-14.59359375 7.17246094 -13.835625 6.72773438 -13.0546875 6.26953125 C-11.85199219 5.57923828 -11.85199219 5.57923828 -10.625 4.875 C-9.43390625 4.17310547 -9.43390625 4.17310547 -8.21875 3.45703125 C-2.2722531 0 -2.2722531 0 0 0 Z " fill="#828483" transform="translate(53,296)"/>
<path d="M0 0 C3.96 0 7.92 0 12 0 C12 3.96 12 7.92 12 12 C8.04 12 4.08 12 0 12 C0 8.04 0 4.08 0 0 Z " fill="#202221" transform="translate(83,116)"/>
<path d="M0 0 C1.99796955 2.99695432 2.34510261 4.17857384 2.6875 7.625 C2.77386719 8.42164063 2.86023438 9.21828125 2.94921875 10.0390625 C2.96597656 10.68617188 2.98273438 11.33328125 3 12 C2 13 2 13 -0.50390625 13.09765625 C-3.3359375 13.06510417 -6.16796875 13.03255208 -9 13 C-9.33 9.04 -9.66 5.08 -10 1 C-6.7 0.67 -3.4 0.34 0 0 Z " fill="#1B1D1C" transform="translate(65,216)"/>
<path d="M0 0 C1.32 0.33 2.64 0.66 4 1 C4.11173565 10.08783274 3.89435273 18.9446786 3 28 C-4.92 28 -12.84 28 -21 28 C-21 20.08 -21 12.16 -21 4 C-10.605 3.505 -10.605 3.505 0 3 C0 2.01 0 1.02 0 0 Z M-20 5 C-20 12.26 -20 19.52 -20 27 C-12.74 27 -5.48 27 2 27 C2 19.74 2 12.48 2 5 C-5.26 5 -12.52 5 -20 5 Z " fill="#676968" transform="translate(98,106)"/>
<path d="M0 0 C0.33 0.66 0.66 1.32 1 2 C0.67 2.66 0.34 3.32 0 4 C26.07 4 52.14 4 79 4 C78.34 4.99 77.68 5.98 77 7 C74.11106481 7.22222578 71.44251519 7.28025028 68.5625 7.1875 C67.78583984 7.17396484 67.00917969 7.16042969 66.20898438 7.14648438 C64.13908559 7.10904435 62.06949656 7.05537801 60 7 C59.01 7 58.02 7 57 7 C55.05049876 6.97195076 53.10104019 6.94089795 51.15161133 6.90820312 C49.9505928 6.88818237 48.74957428 6.86816162 47.51216125 6.84753418 C46.21521835 6.8256604 44.91827545 6.80378662 43.58203125 6.78125 C42.24110449 6.75880795 40.90017736 6.736388 39.55924988 6.71398926 C36.03292474 6.65502642 32.5066047 6.59576334 28.98028564 6.53643799 C25.38074034 6.47593376 21.78119029 6.41571315 18.18164062 6.35546875 C11.12108908 6.23725693 4.06054289 6.11872795 -3 6 C-1.125 1.125 -1.125 1.125 0 0 Z " fill="#1D1E1E" transform="translate(127,265)"/>
<path d="M0 0 C3.3 0 6.6 0 10 0 C10 3.3 10 6.6 10 10 C6.7 10 3.4 10 0 10 C0 6.7 0 3.4 0 0 Z " fill="#7D7D7D" transform="translate(189,442)"/>
<path d="M0 0 C0.66 0 1.32 0 2 0 C4 3 4 3 3.64477539 5.16479492 C3.43199951 6.1004126 3.21922363 7.03603027 3 8 C2.85188728 10.79336004 2.74492385 13.56824357 2.68359375 16.36328125 C2.66281265 17.15526413 2.64203156 17.94724701 2.62062073 18.76322937 C2.55552196 21.27956928 2.49642577 23.79600872 2.4375 26.3125 C2.394277 28.02409861 2.35066152 29.73568735 2.30664062 31.44726562 C2.19988153 35.63140984 2.09850365 39.81565362 2 44 C1.01 44.495 1.01 44.495 0 45 C0 30.15 0 15.3 0 0 Z " fill="#282828" transform="translate(61,470)"/>
<path d="M0 0 C2.33524782 2.25740623 4.18705073 4.2805761 6 7 C6 7.99 6 8.98 6 10 C2.37 10 -1.26 10 -5 10 C-3.84414715 6.08788267 -2.64465038 3.1254959 0 0 Z " fill="#838383" transform="translate(215,617)"/>
<path d="M0 0 C0.66 0.33 1.32 0.66 2 1 C1.01 2.485 1.01 2.485 0 4 C-0.66 4 -1.32 4 -2 4 C-1.67 4.99 -1.34 5.98 -1 7 C-1.61875 7.061875 -2.2375 7.12375 -2.875 7.1875 C-3.57625 7.455625 -4.2775 7.72375 -5 8 C-5.495 9.2375 -5.495 9.2375 -6 10.5 C-6.495 11.7375 -6.495 11.7375 -7 13 C-8.32796291 13.35412344 -9.66216607 13.68521554 -11 14 C-12.37482707 15.63260714 -13.70647667 17.30225062 -15 19 C-17.25 20.8125 -17.25 20.8125 -19 22 C-19 19 -19 19 -17.47119141 17.09887695 C-16.77171387 16.40238037 -16.07223633 15.70588379 -15.3515625 14.98828125 C-14.21460938 13.85229492 -14.21460938 13.85229492 -13.0546875 12.69335938 C-12.25289062 11.90767578 -11.45109375 11.12199219 -10.625 10.3125 C-9.8309375 9.51521484 -9.036875 8.71792969 -8.21875 7.89648438 C-2.26678117 2 -2.26678117 2 0 2 C0 1.34 0 0.68 0 0 Z " fill="#2C2C2C" transform="translate(176,546)"/>
<path d="M0 0 C2.64 0 5.28 0 8 0 C8 2.64 8 5.28 8 8 C5.36 8 2.72 8 0 8 C0 5.36 0 2.72 0 0 Z " fill="#1E1E1E" transform="translate(225,474)"/>
<path d="M0 0 C0.33 0.99 0.66 1.98 1 3 C-5.66666667 8.33333333 -12.33333333 13.66666667 -19 19 C-19.66 18.67 -20.32 18.34 -21 18 C-17.71117281 13.61489708 -14.64079362 9.70421163 -9.1875 8.25 C-8.1046875 8.12625 -8.1046875 8.12625 -7 8 C-7 6.68 -7 5.36 -7 4 C-6.01 4 -5.02 4 -4 4 C-1.81222534 2.0624994 -1.81222534 2.0624994 0 0 Z " fill="#111111" transform="translate(127,496)"/>
<path d="M0 0 C3.40312738 1.05875074 6.01353231 2.00902154 9 4 C9 4.66 9 5.32 9 6 C2.25 10 2.25 10 0 10 C0 6.7 0 3.4 0 0 Z " fill="#B4B6B5" transform="translate(46,272)"/>
<path d="M0 0 C4.8274799 1.41292095 8.7162359 3.42974154 13 6 C13.33 5.34 13.66 4.68 14 4 C14 4.99 14 5.98 14 7 C11.50935112 7.68707555 9.62113708 8 7 8 C6.01 8.33 5.02 8.66 4 9 C3.71125 8.21625 3.4225 7.4325 3.125 6.625 C2.15087746 3.90328368 2.15087746 3.90328368 0 2 C0 1.34 0 0.68 0 0 Z " fill="#1F2120" transform="translate(40,312)"/>
<path d="M0 0 C0.66 0.33 1.32 0.66 2 1 C-1.96 4.465 -1.96 4.465 -6 8 C-6.99 7.01 -7.98 6.02 -9 5 C-9 4.01 -9 3.02 -9 2 C-7.88625 1.855625 -6.7725 1.71125 -5.625 1.5625 C-2.17857953 1.21627965 -2.17857953 1.21627965 0 0 Z " fill="#1D1D1D" transform="translate(102,516)"/>
<path d="M0 0 C0.66 0.33 1.32 0.66 2 1 C0.50902342 4.7952131 -1.75700849 6.61042731 -5 9 C-5.77772405 6.66682784 -6.42415568 4.38564077 -7 2 C-6.01 2 -5.02 2 -4 2 C-4 2.66 -4 3.32 -4 4 C-3.01 3.67 -2.02 3.34 -1 3 C-0.67 2.01 -0.34 1.02 0 0 Z " fill="#242424" transform="translate(179,558)"/>
<path d="M0 0 C-2.79716804 3.29078593 -6.19528578 5.06305458 -10 7 C-10.66 6.67 -11.32 6.34 -12 6 C-11.01 5.67 -10.02 5.34 -9 5 C-8.87625 4.195625 -8.7525 3.39125 -8.625 2.5625 C-8.41875 1.716875 -8.2125 0.87125 -8 0 C-5.13822943 -1.43088528 -3.06624227 -0.59991697 0 0 Z " fill="#232524" transform="translate(49,297)"/>
<path d="M0 0 C0.66 0.33 1.32 0.66 2 1 C1.01 2.485 1.01 2.485 0 4 C-0.66 4 -1.32 4 -2 4 C-1.67 4.99 -1.34 5.98 -1 7 C-4.465 8.485 -4.465 8.485 -8 10 C-6.55922954 6.63820226 -4.75249979 4.40843732 -2 2 C-1.34 2 -0.68 2 0 2 C0 1.34 0 0.68 0 0 Z " fill="#1D1D1D" transform="translate(176,546)"/>
<path d="M0 0 C0.66 0.33 1.32 0.66 2 1 C1.34 2.32 0.68 3.64 0 5 C-0.66 4.67 -1.32 4.34 -2 4 C-2.33 4.66 -2.66 5.32 -3 6 C-2.34 6.33 -1.68 6.66 -1 7 C-3.97 6.505 -3.97 6.505 -7 6 C-7 5.34 -7 4.68 -7 4 C-1.7265625 0.77734375 -1.7265625 0.77734375 0 0 Z " fill="#1F2120" transform="translate(53,278)"/>
<path d="M0 0 C1.32 0.66 2.64 1.32 4 2 C3.3503125 2.5878125 3.3503125 2.5878125 2.6875 3.1875 C0.86417371 5.01796997 0.86417371 5.01796997 -0.5625 7.625 C-2 10 -2 10 -4 11 C-3.67 10.4225 -3.34 9.845 -3 9.25 C-1.72924102 6.80116138 -1.72924102 6.80116138 -2 3 C-1.34 2.67 -0.68 2.34 0 2 C0 1.34 0 0.68 0 0 Z " fill="#1E201F" transform="translate(74,600)"/>
<path d="M0 0 C0.66 0.66 1.32 1.32 2 2 C-1.465 4.97 -1.465 4.97 -5 8 C-5.66 7.67 -6.32 7.34 -7 7 C-4.78071806 4.09197539 -3.07030857 2.04687238 0 0 Z " fill="#171717" transform="translate(113,507)"/>
<path d="M0 0 C0.33 0.66 0.66 1.32 1 2 C-1.17508418 6.69360269 -1.17508418 6.69360269 -4.1875 7.8125 C-4.785625 7.874375 -5.38375 7.93625 -6 8 C-4.55746343 4.63408134 -2.66735273 2.48952921 0 0 Z " fill="#2C2C2C" transform="translate(154,568)"/>
<path d="M0 0 C0.33 1.32 0.66 2.64 1 4 C1.8971875 3.505 1.8971875 3.505 2.8125 3 C5 2 5 2 8 2 C8 2.99 8 3.98 8 5 C5.1875 5.6875 5.1875 5.6875 2 6 C0.125 4.5625 0.125 4.5625 -1 3 C-0.67 2.01 -0.34 1.02 0 0 Z " fill="#2B2D2C" transform="translate(117,65)"/>
<path d="M0 0 C1.98 0.495 1.98 0.495 4 1 C3.67 2.32 3.34 3.64 3 5 C1.68 4.67 0.36 4.34 -1 4 C-0.67 2.68 -0.34 1.36 0 0 Z " fill="#727473" transform="translate(59,579)"/>
<path d="M0 0 C0.33 0 0.66 0 1 0 C0.67 2.31 0.34 4.62 0 7 C-1.9375 6.6875 -1.9375 6.6875 -4 6 C-4.33 5.01 -4.66 4.02 -5 3 C-3.35 3 -1.7 3 0 3 C0 2.01 0 1.02 0 0 Z " fill="#272928" transform="translate(82,39)"/>
<path d="M0 0 C0.33 0.99 0.66 1.98 1 3 C-0.32 4.32 -1.64 5.64 -3 7 C-3.99 6.67 -4.98 6.34 -6 6 C-4.02 4.02 -2.04 2.04 0 0 Z " fill="#2A2A2A" transform="translate(167,596)"/>
<path d="M0 0 C2.475 0.495 2.475 0.495 5 1 C4.67 1.99 4.34 2.98 4 4 C2.68 3.67 1.36 3.34 0 3 C0 2.01 0 1.02 0 0 Z " fill="#787A79" transform="translate(58,604)"/>
<path d="M0 0 C0 2 0 4 0 6 C-1.32 6.33 -2.64 6.66 -4 7 C-4 4 -4 4 -2 1.8125 C-1.34 1.214375 -0.68 0.61625 0 0 Z " fill="#2C2C2C" transform="translate(138,584)"/>
<path d="M0 0 C0.99 0.33 1.98 0.66 3 1 C2.67 2.32 2.34 3.64 2 5 C1.01 5 0.02 5 -1 5 C-0.67 3.35 -0.34 1.7 0 0 Z " fill="#767877" transform="translate(76,579)"/>
<path d="M0 0 C0.99 0.33 1.98 0.66 3 1 C2.67 2.32 2.34 3.64 2 5 C0.68 4.34 -0.64 3.68 -2 3 C-1.34 2.01 -0.68 1.02 0 0 Z " fill="#797D7C" transform="translate(11,579)"/>
<path d="M0 0 C0.763125 0.20625 1.52625 0.4125 2.3125 0.625 C1.69375 0.7075 1.075 0.79 0.4375 0.875 C-1.87187567 1.43758459 -1.87187567 1.43758459 -2.9375 3.6875 C-3.185 4.326875 -3.4325 4.96625 -3.6875 5.625 C-4.3475 4.305 -5.0075 2.985 -5.6875 1.625 C-2.6875 -0.375 -2.6875 -0.375 0 0 Z " fill="#272928" transform="translate(93.6875,578.375)"/>
<path d="M0 0 C2.1875 0.3125 2.1875 0.3125 4 1 C1.03 3.475 1.03 3.475 -2 6 C-2.33 5.01 -2.66 4.02 -3 3 C-1.75 1.4375 -1.75 1.4375 0 0 Z " fill="#232323" transform="translate(164,552)"/>
</svg>
